<svg xmlns="http://www.w3.org/2000/svg" width="22" height="21" viewBox="0 0 22 21"><g><g><path fill="#e25a76" d="M20.857 1.043c-.373-.155-.692-.09-.957.192l-1.777 1.763A10.616 10.616 0 0 0 14.78.858 10.305 10.305 0 0 0 10.89.1C9.468.1 8.11.378 6.816.934c-1.294.556-2.411 1.303-3.35 2.242a10.6 10.6 0 0 0-2.242 3.35A10.21 10.21 0 0 0 .39 10.6c0 1.422.278 2.78.834 4.074.556 1.295 1.304 2.411 2.242 3.35.939.938 2.056 1.686 3.35 2.242s2.652.834 4.074.834c1.568 0 3.058-.33 4.47-.992a10.25 10.25 0 0 0 3.61-2.795.446.446 0 0 0 .103-.308.377.377 0 0 0-.13-.28l-1.873-1.887a.526.526 0 0 0-.342-.123c-.146.018-.25.073-.314.165a6.859 6.859 0 0 1-2.448 2.01 6.897 6.897 0 0 1-3.076.71 6.81 6.81 0 0 1-2.713-.554A7.034 7.034 0 0 1 5.94 15.55a7.065 7.065 0 0 1-1.497-2.236A6.808 6.808 0 0 1 3.89 10.6c0-.948.185-1.852.554-2.713A7.038 7.038 0 0 1 5.941 5.65a7.043 7.043 0 0 1 2.236-1.497A6.81 6.81 0 0 1 10.89 3.6c1.832 0 3.423.625 4.772 1.874L13.775 7.36c-.282.273-.346.588-.191.943.155.364.423.547.807.547h6.125a.844.844 0 0 0 .615-.26.841.841 0 0 0 .259-.615V1.85c0-.382-.177-.651-.533-.807z"/></g></g></svg>