<svg xmlns="http://www.w3.org/2000/svg" width="26" height="22" viewBox="0 0 26 22"><g><g><path fill="#1da1f2" d="M25.991 3.16c-.952.412-1.983.696-3.06.82a5.254 5.254 0 0 0 2.346-2.873 10.797 10.797 0 0 1-3.394 1.26A5.388 5.388 0 0 0 18 .73c-2.941 0-5.328 2.324-5.328 5.188 0 .409.048.802.136 1.181C8.374 6.882 4.45 4.821 1.818 1.68a5.046 5.046 0 0 0-.722 2.61c0 1.798.944 3.39 2.37 4.314a5.357 5.357 0 0 1-2.409-.648v.063c0 2.516 1.84 4.615 4.273 5.095a5.64 5.64 0 0 1-2.41.085c.682 2.061 2.647 3.557 4.98 3.604a10.897 10.897 0 0 1-6.621 2.216c-.429 0-.849-.024-1.269-.07a15.381 15.381 0 0 0 8.173 2.33c9.8 0 15.16-7.904 15.16-14.758l-.017-.672a10.584 10.584 0 0 0 2.665-2.687z"/></g></g></svg>