<svg xmlns="http://www.w3.org/2000/svg" width="30" height="16" viewBox="0 0 30 16"><g><g><path fill="#5b88bd" d="M27.996 13.025c-.845-1.023-1.837-1.896-2.776-2.823-.848-.836-.902-1.32-.22-2.286.743-1.053 1.543-2.065 2.294-3.114.7-.98 1.416-1.957 1.785-3.13.234-.745.027-1.076-.73-1.207-.13-.023-.265-.023-.399-.023L23.46.436c-.553-.008-.859.235-1.054.731-.265.67-.536 1.34-.852 1.987-.712 1.464-1.51 2.882-2.627 4.082-.246.264-.519.598-.93.46-.517-.19-.667-1.048-.66-1.338l-.004-5.24c-.1-.748-.264-1.083-.999-1.228l-4.665.001c-.622 0-.935.243-1.267.637-.192.228-.25.375.145.45.774.149 1.21.655 1.326 1.44.185 1.255.172 2.514.066 3.772-.031.368-.094.735-.24 1.078-.225.54-.589.65-1.066.317-.434-.3-.739-.723-1.036-1.15C8.48 4.837 7.585 3.113 6.858 1.302c-.21-.523-.573-.84-1.121-.848a114.698 114.698 0 0 0-4.043 0C.884.47.644.867.974 1.61c1.466 3.3 3.1 6.509 5.23 9.431 1.096 1.5 2.352 2.824 3.976 3.762 1.84 1.065 3.82 1.384 5.907 1.285.976-.046 1.27-.303 1.315-1.287.031-.673.106-1.343.435-1.948.322-.594.81-.707 1.374-.338.281.186.518.421.743.669.55.61 1.08 1.235 1.65 1.823.716.736 1.564 1.171 2.63 1.083h4.128c.664-.044 1.01-.869.628-1.618-.268-.527-.62-.995-.994-1.448z"/></g></g></svg>